<svg xmlns="http://www.w3.org/2000/svg" viewBox="0 0 932.11 1015.78"><defs><style>.a{fill:#8de1ff;}.b{fill:#50718c;}.c{fill:#e8eef7;}.d{fill:#ea7373;}.e{fill:#ffcd40;}.f{fill:#82cc7d;}.g{fill:#7ad4fc;}.h{fill:#4a8bba;}.i{fill:#2f7dad;}.j{fill:#d5dfef;}.k{fill:#ffccb6;}.l{fill:#ffe1d2;}.m{fill:#ceb30f;}.n{fill:#a4e7ff;}.o{fill:#f47b5b;}</style></defs><path class="a" d="M658,260.33l-59.27-2.67a9.06,9.06,0,0,1-8.36-6.73,244.29,244.29,0,0,0-25-60.42,9.07,9.07,0,0,1,1.15-10.69l40-43.81a9.08,9.08,0,0,0-.28-12.55l-63-63a9.08,9.08,0,0,0-12.55-.28l-43.81,40a9.08,9.08,0,0,1-10.69,1.15,244.29,244.29,0,0,0-60.42-25A9.06,9.06,0,0,1,409,67.94L406.34,8.67A9.09,9.09,0,0,0,397.26,0H308.15a9.08,9.08,0,0,0-9.07,8.67l-2.67,59.27a9.06,9.06,0,0,1-6.74,8.36,244.44,244.44,0,0,0-60.42,25,9.07,9.07,0,0,1-10.68-1.15l-43.81-40a9.08,9.08,0,0,0-12.55.28l-63,63A9.08,9.08,0,0,0,98.92,136l40,43.81a9.1,9.1,0,0,1,1.15,10.69,244.29,244.29,0,0,0-25,60.42,9.07,9.07,0,0,1-8.36,6.73l-59.27,2.67a9.09,9.09,0,0,0-8.67,9.08v89.11a9.08,9.08,0,0,0,8.67,9.07l59.27,2.67a9.07,9.07,0,0,1,8.36,6.74,244.44,244.44,0,0,0,25,60.42A9.09,9.09,0,0,1,139,448.1l-40,43.81a9.07,9.07,0,0,0,.28,12.55l63,63a9.07,9.07,0,0,0,12.55.28l43.81-40a9.09,9.09,0,0,1,10.68-1.15,244.44,244.44,0,0,0,60.42,25,9.07,9.07,0,0,1,6.74,8.36l2.67,59.27a9.08,9.08,0,0,0,9.07,8.67h89.11a9.09,9.09,0,0,0,9.08-8.67L409,560a9.07,9.07,0,0,1,6.73-8.36,244.29,244.29,0,0,0,60.42-25,9.1,9.1,0,0,1,10.69,1.15l43.81,40a9.08,9.08,0,0,0,12.55-.28l63-63a9.08,9.08,0,0,0,.28-12.55l-40-43.81a9.05,9.05,0,0,1-1.15-10.68,244.44,244.44,0,0,0,25-60.42,9.06,9.06,0,0,1,8.36-6.74L658,367.59a9.08,9.08,0,0,0,8.67-9.07V269.41A9.09,9.09,0,0,0,658,260.33ZM352.71,463.13A149.17,149.17,0,1,1,501.88,314,149.16,149.16,0,0,1,352.71,463.13Z"/><path class="a" d="M889.6,507.12,863.91,506a3.94,3.94,0,0,1-3.63-2.92,105.8,105.8,0,0,0-10.85-26.2,3.92,3.92,0,0,1,.49-4.63l17.36-19a4,4,0,0,0-.12-5.44l-27.32-27.31a3.93,3.93,0,0,0-5.44-.12l-19,17.35a3.94,3.94,0,0,1-4.63.5,106.14,106.14,0,0,0-26.19-10.86,3.91,3.91,0,0,1-2.92-3.63L780.51,398a3.94,3.94,0,0,0-3.93-3.76H738A4,4,0,0,0,734,398l-1.15,25.69a3.94,3.94,0,0,1-2.92,3.63,106.21,106.21,0,0,0-26.2,10.86,3.94,3.94,0,0,1-4.63-.5l-19-17.35a3.93,3.93,0,0,0-5.44.12l-27.31,27.31a3.94,3.94,0,0,0-.13,5.44l17.36,19a3.94,3.94,0,0,1,.5,4.63,106.21,106.21,0,0,0-10.86,26.2,3.94,3.94,0,0,1-3.63,2.92l-25.69,1.15a4,4,0,0,0-3.76,3.94v38.63a3.94,3.94,0,0,0,3.76,3.93l25.69,1.16a3.91,3.91,0,0,1,3.63,2.92,106.14,106.14,0,0,0,10.86,26.19,3.94,3.94,0,0,1-.5,4.63l-17.36,19a3.94,3.94,0,0,0,.13,5.44l27.31,27.32a4,4,0,0,0,5.44.12l19-17.36a3.92,3.92,0,0,1,4.63-.49,105.8,105.8,0,0,0,26.2,10.85,3.94,3.94,0,0,1,2.92,3.63L734,662.71a4,4,0,0,0,3.94,3.76h38.63a3.94,3.94,0,0,0,3.93-3.76L781.67,637a3.91,3.91,0,0,1,2.92-3.63,105.73,105.73,0,0,0,26.19-10.85,3.92,3.92,0,0,1,4.63.49l19,17.36a4,4,0,0,0,5.44-.12L867.16,613a4,4,0,0,0,.12-5.44l-17.36-19a3.92,3.92,0,0,1-.49-4.63,105.73,105.73,0,0,0,10.85-26.19,3.91,3.91,0,0,1,3.63-2.92l25.69-1.16a3.94,3.94,0,0,0,3.76-3.93V511.06A4,4,0,0,0,889.6,507.12ZM757.26,595a64.67,64.67,0,1,1,64.67-64.67A64.67,64.67,0,0,1,757.26,595Z"/><path class="b" d="M918.9,1015.78H13.2a8.57,8.57,0,0,1-8.56-8.57h0a8.56,8.56,0,0,1,8.56-8.56H918.9a8.57,8.57,0,0,1,8.57,8.56h0A8.57,8.57,0,0,1,918.9,1015.78Z"/><rect class="b" y="237.5" width="268.09" height="211.33" rx="13.85"/><rect class="c" x="10.39" y="278.43" width="247.31" height="160.01" rx="3.46"/><circle class="d" cx="17.05" cy="255.33" r="6.66"/><circle class="e" cx="38.04" cy="255.33" r="6.66"/><circle class="f" cx="59.04" cy="255.33" r="6.66"/><rect class="f" x="20.16" y="306.68" width="107.55" height="14.79"/><rect class="g" x="20.16" y="331.43" width="47.23" height="78.77"/><rect class="h" x="80.48" y="331.43" width="47.23" height="78.77"/><rect class="f" x="140.37" y="306.68" width="83.04" height="14.79"/><rect class="d" x="140.37" y="336.25" width="107.55" height="14.79"/><rect class="f" x="140.37" y="395.41" width="107.55" height="14.79"/><rect class="e" x="140.37" y="365.83" width="30.02" height="14.79"/><rect class="e" x="186.02" y="365.83" width="61.9" height="14.79"/><rect class="c" x="469.13" y="260.91" width="73.85" height="55.95"/><rect class="b" x="343.36" y="18.09" width="325.4" height="256.52" rx="16.81" transform="translate(1012.12 292.7) rotate(180)"/><rect class="c" x="355.97" y="30.7" width="300.19" height="194.22" rx="4.2"/><path class="b" d="M554,326.12H458.15a9.27,9.27,0,0,1-9.26-9.27h0a9.27,9.27,0,0,1,9.26-9.26H554a9.27,9.27,0,0,1,9.27,9.26h0A9.27,9.27,0,0,1,554,326.12Z"/><rect class="g" x="371.91" y="46.5" width="268.3" height="13.2"/><rect class="f" x="371.91" y="75.72" width="83.9" height="83.9"/><rect class="g" x="371.91" y="175.64" width="268.3" height="33.49"/><rect class="h" x="471.83" y="75.72" width="91" height="53.48"/><rect class="e" x="468.15" y="145.22" width="172.06" height="14.4"/><rect class="d" x="578.86" y="75.72" width="61.35" height="53.48"/><rect class="b" x="709.57" y="275.09" width="87.93" height="166.38" rx="10.86"/><rect class="c" x="715" y="280.52" width="77.07" height="138.79" rx="5.43"/><path class="c" d="M759.67,430.39a6.14,6.14,0,1,1-6.14-6.14A6.13,6.13,0,0,1,759.67,430.39Z"/><rect class="f" x="721.5" y="296.43" width="64.07" height="6.36"/><rect class="h" x="721.5" y="308.25" width="29.31" height="29.31"/><rect class="d" x="756.26" y="308.25" width="29.31" height="29.31"/><rect class="e" x="721.5" y="343.01" width="29.31" height="29.31"/><rect class="g" x="756.26" y="343.01" width="29.31" height="29.31"/><rect class="f" x="721.5" y="377.78" width="64.07" height="25.61"/><rect class="b" x="844.18" y="192.24" width="87.93" height="166.38" rx="10.86"/><rect class="c" x="849.6" y="197.66" width="77.07" height="138.79" rx="5.43"/><path class="c" d="M894.28,347.53a6.14,6.14,0,1,1-6.14-6.13A6.14,6.14,0,0,1,894.28,347.53Z"/><rect class="d" x="856.1" y="314.17" width="64.07" height="6.36" transform="translate(1776.28 634.71) rotate(180)"/><rect class="h" x="890.87" y="279.41" width="29.31" height="29.31" transform="translate(1811.05 588.13) rotate(180)"/><rect class="g" x="856.1" y="244.65" width="29.31" height="64.07" transform="translate(1741.52 553.37) rotate(180)"/><rect class="e" x="890.87" y="244.65" width="29.31" height="29.31" transform="translate(1811.05 518.6) rotate(180)"/><rect class="f" x="856.1" y="213.58" width="64.07" height="25.61" transform="translate(1776.28 452.77) rotate(180)"/><path class="h" d="M719.9,955.78c0,35.35-15.34,42.7-41.67,42.7H235.49c-26.33,0-41.67-7.35-41.67-42.7S223,793.84,300.75,739.55C356.68,700.5,394,691,456.86,691S557,700.5,613,739.55C690.72,793.84,719.9,920.43,719.9,955.78Z"/><path class="i" d="M298.49,850.72a1,1,0,0,1,1.91.75c-7.88,24.47-16.44,49.22-17,65.51-.25,8.9,1.56,16.33,10.27,18.21,21.78,5.48,63.57,5.88,94.87,6a1,1,0,0,1,.11,2c-30.33,3.49-71.52,5.06-96.7-1.21-11.91-2.61-16-13-15.15-25.3C278,898.79,289.1,871.18,298.49,850.72Z"/><path class="i" d="M615.22,850.72a1,1,0,0,0-1.9.75c7.87,24.47,16.44,49.22,17,65.51.25,8.9-1.56,16.33-10.28,18.21-21.78,5.48-63.56,5.88-94.87,6a1,1,0,0,0-.11,2c30.33,3.49,71.52,5.06,96.71-1.21,11.9-2.61,16-13,15.14-25.3C635.77,898.79,624.62,871.18,615.22,850.72Z"/><path class="j" d="M605.68,991.49H308a7.16,7.16,0,0,1-7.15-6.81L291.09,784a7.16,7.16,0,0,1,7.15-7.51H615.48a7.16,7.16,0,0,1,7.15,7.51l-9.81,200.7A7.15,7.15,0,0,1,605.68,991.49Z"/><path class="c" d="M615.84,998.65h-318a7.17,7.17,0,0,1-7.16-7.16h0a7.17,7.17,0,0,1,7.16-7.16h318a7.16,7.16,0,0,1,7.15,7.16h0A7.16,7.16,0,0,1,615.84,998.65Z"/><circle class="c" cx="456.86" cy="883.98" r="27.79"/><path class="k" d="M368.49,553.3l-7.6-2.35a9.33,9.33,0,0,0-9.82,2.84h0a9.33,9.33,0,0,0-1.83,8.81l10.11,32.78a9.31,9.31,0,0,0,7.61,6.48l.24,0a9.31,9.31,0,0,0,10.56-10.06L375,561.36A9.31,9.31,0,0,0,368.49,553.3Z"/><path class="k" d="M545.23,553.3l7.59-2.35a9.34,9.34,0,0,1,9.83,2.84h0a9.35,9.35,0,0,1,1.82,8.81l-10.1,32.78a9.32,9.32,0,0,1-7.62,6.48l-.23,0A9.32,9.32,0,0,1,536,591.84l2.75-30.48A9.31,9.31,0,0,1,545.23,553.3Z"/><path class="k" d="M456.86,747.54h0a33.56,33.56,0,0,1-33.5-35.49l2.33-40.56H488l2.34,40.56A33.56,33.56,0,0,1,456.86,747.54Z"/><path class="l" d="M489.76,466.59H424a52.64,52.64,0,0,0-50.61,38.18h0a50,50,0,0,0-1.92,13.7v80.35a72.22,72.22,0,0,0,11.09,38.44l23.07,36.66a31.71,31.71,0,0,0,26.83,14.82h48.9a31.72,31.72,0,0,0,26.83-14.82l23.06-36.66a72.13,72.13,0,0,0,11.09-38.44V518.47a50,50,0,0,0-1.91-13.7h0A52.64,52.64,0,0,0,489.76,466.59Z"/><path class="m" d="M555.3,484.79h0a4.75,4.75,0,0,0-1.94,7L564,507.2a4.76,4.76,0,0,1-1.36,6.74l-10.36,6.55a4.77,4.77,0,0,0-2.22,4v40.61a4.81,4.81,0,0,1-.35,1.8l-.2.49a4.76,4.76,0,0,1-9.14-1.33l-4.54-45.56a4.8,4.8,0,0,0-1.86-3.32l-22.2-16.86a4.76,4.76,0,0,0-7.14,5.92l3,6a4.76,4.76,0,0,1-5.21,6.79L396.12,497.56a4.76,4.76,0,0,0-4.86,1.95l-12.48,17.94a4.7,4.7,0,0,0-.83,2.25l-4.63,46.39a4.76,4.76,0,0,1-9.14,1.33l-.2-.49a4.81,4.81,0,0,1-.35-1.8V461.77a4.76,4.76,0,0,1,5.87-4.63l27.71,6.67a4.76,4.76,0,0,0,4.54-1.32l22.17-23a4.76,4.76,0,0,1,4.79-1.25l126,37.61A4.76,4.76,0,0,1,555.3,484.79Z"/><path class="l" d="M471.69,571.13h0Z"/><path class="j" d="M806.93,998.65H765.16a6.5,6.5,0,0,1,0-13h41.77a22.12,22.12,0,0,0,21.93-25.07L799,738.12a17.54,17.54,0,0,0-11.76-14.21l-20.5-6.84a6.5,6.5,0,0,1,4.11-12.33l20.5,6.84a30.63,30.63,0,0,1,20.54,24.82l29.83,222.45a35.13,35.13,0,0,1-34.82,39.8Z"/><path class="c" d="M690.12,912.72h0a10.23,10.23,0,0,1-5.82-13.26l150-384.55a10.25,10.25,0,0,1,13.27-5.82h0a10.24,10.24,0,0,1,5.82,13.26l-150,384.55A10.23,10.23,0,0,1,690.12,912.72Z"/><path class="n" d="M99.67,818.51C83,871.84,108.34,881.4,93,922,113,880.51,94.34,858.84,99.67,818.51Z"/><path class="n" d="M133.4,828.83c-11.54,36.94,6,43.57-4.62,71.66C142.64,871.78,129.71,856.77,133.4,828.83Z"/><path class="n" d="M115.67,847.1c11.55,36.95-6,43.57,4.62,71.66C106.44,890.05,119.37,875,115.67,847.1Z"/><rect class="o" x="78.06" y="916.9" width="72.25" height="81.74" rx="11.33"/><path class="o" d="M157.82,927.77H125.15v8h32.67a9,9,0,0,1,9,9v26a9.05,9.05,0,0,1-9,9H125.15v8h32.67a17,17,0,0,0,17-17v-26A17,17,0,0,0,157.82,927.77Z"/></svg>