<svg xmlns="http://www.w3.org/2000/svg" width="45" height="60" viewBox="0 0 45 60">
  <path id="Icon_awesome-file-code" data-name="Icon awesome-file-code" d="M45,14.29V15H30V0h.71A2.813,2.813,0,0,1,32.7.824L44.176,12.3A2.813,2.813,0,0,1,45,14.29ZM29.063,18.75a2.821,2.821,0,0,1-2.812-2.812V0H2.813A2.812,2.812,0,0,0,0,2.813V57.188A2.812,2.812,0,0,0,2.813,60H42.188A2.812,2.812,0,0,0,45,57.188V18.75ZM14.438,46.934a.633.633,0,0,1-.894.029l-7.6-7.126a.633.633,0,0,1,0-.923l7.6-7.126a.633.633,0,0,1,.894.029l2.294,2.447a.633.633,0,0,1-.044.908l-4.777,4.2,4.777,4.2a.633.633,0,0,1,.044.908Zm6.011,5.916-3.217-.934a.633.633,0,0,1-.431-.784l7.2-24.8a.633.633,0,0,1,.784-.431L28,26.834a.633.633,0,0,1,.431.784l-7.2,24.8a.632.632,0,0,1-.784.431ZM39.292,39.837l-7.6,7.126a.633.633,0,0,1-.894-.029L28.5,44.487a.633.633,0,0,1,.044-.908l4.777-4.2-4.777-4.2a.633.633,0,0,1-.044-.908L30.8,31.816a.633.633,0,0,1,.894-.029l7.6,7.126a.633.633,0,0,1,0,.923Z" fill="#fff"/>
</svg>
