<svg xmlns="http://www.w3.org/2000/svg" width="61.538" height="60" viewBox="0 0 61.538 60">
  <path id="Icon_awesome-github" data-name="Icon awesome-github" d="M20.583,48.874c0,.248-.285.447-.645.447-.409.037-.695-.161-.695-.447,0-.248.285-.447.645-.447C20.26,48.391,20.583,48.589,20.583,48.874Zm-3.859-.558c-.087.248.161.533.533.608a.582.582,0,0,0,.769-.248c.074-.248-.161-.533-.533-.645A.637.637,0,0,0,16.724,48.316Zm5.484-.211c-.36.087-.608.323-.571.608.037.248.36.409.732.323s.608-.323.571-.571S22.568,48.068,22.208,48.105ZM30.372.562C13.164.562,0,13.627,0,30.835A31.1,31.1,0,0,0,21.029,60.512c1.588.285,2.146-.695,2.146-1.5,0-.769-.037-5.012-.037-7.618,0,0-8.685,1.861-10.509-3.7,0,0-1.414-3.61-3.449-4.541,0,0-2.841-1.948.2-1.911a6.549,6.549,0,0,1,4.789,3.2c2.717,4.789,7.27,3.412,9.045,2.593A6.9,6.9,0,0,1,25.2,42.857c-6.935-.769-13.933-1.774-13.933-13.709a9.4,9.4,0,0,1,2.928-7.308,11.722,11.722,0,0,1,.323-8.424c2.593-.806,8.561,3.35,8.561,3.35a29.31,29.31,0,0,1,15.583,0s5.968-4.169,8.561-3.35a11.717,11.717,0,0,1,.323,8.424c1.985,2.2,3.2,3.908,3.2,7.308,0,11.973-7.308,12.928-14.243,13.709,1.141.98,2.109,2.841,2.109,5.757,0,4.181-.037,9.355-.037,10.372,0,.806.571,1.787,2.146,1.5,12.407-4.119,20.819-15.893,20.819-29.652C61.538,13.627,47.58.562,30.372.562ZM12.059,43.353c-.161.124-.124.409.087.645.2.2.484.285.645.124.161-.124.124-.409-.087-.645C12.506,43.279,12.221,43.192,12.059,43.353Zm-1.34-1c-.087.161.037.36.285.484a.369.369,0,0,0,.533-.087c.087-.161-.037-.36-.285-.484C11,42.187,10.806,42.224,10.719,42.348Zm4.02,4.417c-.2.161-.124.533.161.769.285.285.645.323.806.124.161-.161.087-.533-.161-.769C15.273,46.6,14.9,46.567,14.739,46.765Zm-1.414-1.824c-.2.124-.2.447,0,.732s.533.409.695.285a.566.566,0,0,0,0-.769C13.846,44.9,13.523,44.78,13.325,44.941Z" transform="translate(0 -0.563)" fill="#fff"/>
</svg>
